HIERARCHY
ROOT hip
{
  OFFSET 17.4988 82.9666 36.0543
  CHANNELS 6 Xposition Yposition Zposition Zrotation Xrotation Yrotation
  JOINT abdomen
  {
    OFFSET 0 20.6881 -0.73152
    CHANNELS 3 Zrotation Xrotation Yrotation
    JOINT chest
    {
      OFFSET 0 11.7043 -0.48768
      CHANNELS 3 Zrotation Xrotation Yrotation
      JOINT neck
      {
        OFFSET 0 22.1894 -2.19456
        CHANNELS 3 Zrotation Xrotation Yrotation
        JOINT head
        {
          OFFSET -0.24384 7.07133 1.2192
          CHANNELS 3 Zrotation Xrotation Yrotation
          JOINT leftEye
          {
            OFFSET 4.14528 8.04674 8.04672
            CHANNELS 3 Zrotation Xrotation Yrotation
            End Site
            {
              OFFSET 1 0 0
            }
          }
          JOINT rightEye
          {
            OFFSET -3.6576 8.04674 8.04672
            CHANNELS 3 Zrotation Xrotation Yrotation
            End Site
            {
              OFFSET 1 0 0
            }
          }
        }
      }
      JOINT rCollar
      {
        OFFSET -2.68224 19.2634 -4.8768
        CHANNELS 3 Zrotation Xrotation Yrotation
        JOINT rShldr
        {
          OFFSET -8.77824 -1.95073 1.46304
          CHANNELS 3 Zrotation Xrotation Yrotation
          JOINT rForeArm
          {
            OFFSET -28.1742 -1.7115 0.48768
            CHANNELS 3 Zrotation Xrotation Yrotation
            JOINT rHand
            {
              OFFSET -22.5879 0.773209 7.07136
              CHANNELS 3 Zrotation Xrotation Yrotation
              JOINT rThumb1
              {
                OFFSET -1.2192 -0.487915 3.41376
                CHANNELS 3 Zrotation Xrotation Yrotation
                JOINT rThumb2
                {
                  OFFSET -3.37035 -0.52449 3.41376
                  CHANNELS 3 Zrotation Xrotation Yrotation
                  End Site
                  {
                    OFFSET -1.78271 -1.18214 1.43049
                  }
                }
              }
              JOINT rIndex1
              {
                OFFSET -7.75947 0.938293 5.60832
                CHANNELS 3 Zrotation Xrotation Yrotation
                JOINT rIndex2
                {
                  OFFSET -2.54057 -0.884171 1.56538
                  CHANNELS 3 Zrotation Xrotation Yrotation
                  End Site
                  {
                    OFFSET -1.62519 -0.234802 1.16502
                  }
                }
              }
              JOINT rMid1
              {
                OFFSET -8.24714 1.18213 3.41376
                CHANNELS 3 Zrotation Xrotation Yrotation
                JOINT rMid2
                {
                  OFFSET -3.10165 -0.590103 1.0647
                  CHANNELS 3 Zrotation Xrotation Yrotation
                  End Site
                  {
                    OFFSET -2.48547 -0.328903 0.83742
                  }
                }
              }
              JOINT rRing1
              {
                OFFSET -8.82822 0.546677 1.51678
                CHANNELS 3 Zrotation Xrotation Yrotation
                JOINT rRing2
                {
                  OFFSET -2.60934 -0.819778 -0.0198488
                  CHANNELS 3 Zrotation Xrotation Yrotation
                  End Site
                  {
                    OFFSET -2.33842 -0.294052 0.168128
                  }
                }
              }
              JOINT rPinky1
              {
                OFFSET -8.27202 -0.0477905 -0.4584
                CHANNELS 3 Zrotation Xrotation Yrotation
                JOINT rPinky2
                {
                  OFFSET -1.82734 -0.647385 -0.700984
                  CHANNELS 3 Zrotation Xrotation Yrotation
                  End Site
                  {
                    OFFSET -1.69225 -0.51767 -0.607171
                  }
                }
              }
            }
          }
        }
      }
      JOINT lCollar
      {
        OFFSET 2.68224 19.2634 -4.8768
        CHANNELS 3 Zrotation Xrotation Yrotation
        JOINT lShldr
        {
          OFFSET 8.77824 -1.95073 1.46304
          CHANNELS 3 Zrotation Xrotation Yrotation
          JOINT lForeArm
          {
            OFFSET 28.1742 -1.7115 0.48768
            CHANNELS 3 Zrotation Xrotation Yrotation
            JOINT lHand
            {
              OFFSET 22.5879 0.773209 7.07136
              CHANNELS 3 Zrotation Xrotation Yrotation
              JOINT lThumb1
              {
                OFFSET 1.2192 -0.487915 3.41376
                CHANNELS 3 Zrotation Xrotation Yrotation
                JOINT lThumb2
                {
                  OFFSET 3.37035 -0.52449 3.41376
                  CHANNELS 3 Zrotation Xrotation Yrotation
                  End Site
                  {
                    OFFSET 1.78271 -1.18214 1.43049
                  }
                }
              }
              JOINT lIndex1
              {
                OFFSET 7.75947 0.938293 5.60832
                CHANNELS 3 Zrotation Xrotation Yrotation
                JOINT lIndex2
                {
                  OFFSET 2.54057 -0.884171 1.56538
                  CHANNELS 3 Zrotation Xrotation Yrotation
                  End Site
                  {
                    OFFSET 1.62519 -0.234802 1.16502
                  }
                }
              }
              JOINT lMid1
              {
                OFFSET 8.24714 1.18213 3.41376
                CHANNELS 3 Zrotation Xrotation Yrotation
                JOINT lMid2
                {
                  OFFSET 3.10165 -0.590103 1.0647
                  CHANNELS 3 Zrotation Xrotation Yrotation
                  End Site
                  {
                    OFFSET 2.48547 -0.328903 0.83742
                  }
                }
              }
              JOINT lRing1
              {
                OFFSET 8.82822 0.546677 1.51678
                CHANNELS 3 Zrotation Xrotation Yrotation
                JOINT lRing2
                {
                  OFFSET 2.60934 -0.819778 -0.0198488
                  CHANNELS 3 Zrotation Xrotation Yrotation
                  End Site
                  {
                    OFFSET 2.33842 -0.294052 0.168128
                  }
                }
              }
              JOINT lPinky1
              {
                OFFSET 8.27202 -0.0477905 -0.4584
                CHANNELS 3 Zrotation Xrotation Yrotation
                JOINT lPinky2
                {
                  OFFSET 1.82734 -0.647385 -0.700984
                  CHANNELS 3 Zrotation Xrotation Yrotation
                  End Site
                  {
                    OFFSET 1.69225 -0.51767 -0.607171
                  }
                }
              }
            }
          }
        }
      }
    }
  }
  JOINT rButtock
  {
    OFFSET -8.77824 4.35084 1.2192
    CHANNELS 3 Zrotation Xrotation Yrotation
    JOINT rThigh
    {
      OFFSET 0 -1.70687 -2.19456
      CHANNELS 3 Zrotation Xrotation Yrotation
      JOINT rShin
      {
        OFFSET 0 -36.8199 0.73152
        CHANNELS 3 Zrotation Xrotation Yrotation
        JOINT rFoot
        {
          OFFSET 0.73152 -45.1104 -5.12064
          CHANNELS 3 Zrotation Xrotation Yrotation
          End Site
          {
            OFFSET -1.1221 -3.69964 12.103
          }
        }
      }
    }
  }
  JOINT lButtock
  {
    OFFSET 8.77824 4.35084 1.2192
    CHANNELS 3 Zrotation Xrotation Yrotation
    JOINT lThigh
    {
      OFFSET 0 -1.70687 -2.19456
      CHANNELS 3 Zrotation Xrotation Yrotation
      JOINT lShin
      {
        OFFSET 0 -36.8199 0.73152
        CHANNELS 3 Zrotation Xrotation Yrotation
        JOINT lFoot
        {
          OFFSET -0.73152 -45.1104 -5.12064
          CHANNELS 3 Zrotation Xrotation Yrotation
          End Site
          {
            OFFSET 1.1221 -3.69964 12.103
          }
        }
      }
    }
  }
}
MOTION
Frames:	6
Frame Time:	0.00833333
53.5765 85.1968 30.1893 -0.443815 -0.00111774 0.00758098 0.583967 -0.00303823 0.0166886 0.16117 -0.0046852 0.0279252 -4.15481e-015 7.95139e-016 -6.212e-018 -1.22656e-014 9.54166e-015 -3.10601e-018 -0 0 0 -0 0 0 -2.08868e-015 -7.37677e-018 9.93923e-017 -4.13865e-014 -1.11816e-016 7.95139e-016 -7.42958e-013 2.18464e-013 -1.27222e-014 -8.50971e-012 -2.43809e-013 6.36111e-015 -2.00713e-011 -5.68914e-014 -9.54166e-015 -3.46736e-011 -1.01778e-013 -2.22639e-014 -2.00669e-011 -5.60573e-014 -1.90833e-014 7.73091 5.47488 0.417314 -2.00715e-011 -5.6753e-014 -9.54166e-015 2.90554 0.965183 0.102902 -2.00665e-011 -5.73494e-014 -1.35174e-014 10.2786 0.731801 0.0259123 -2.00743e-011 -5.60573e-014 -6.36111e-015 2.22167 -0.733487 -0.20892 -2.18533e-015 -8.54153e-018 -9.93923e-017 -4.49135e-014 -2.11209e-016 -1.19271e-015 -7.42312e-013 -2.26416e-013 1.27222e-014 -8.50534e-012 2.02065e-013 -1.59028e-014 -2.00592e-011 -5.40295e-014 -2.22639e-014 -3.46287e-011 -9.54166e-014 -2.8625e-014 -2.00606e-011 -5.52621e-014 -1.27222e-014 -7.73091 5.47488 -0.417314 -2.00589e-011 -5.41688e-014 -1.90833e-014 -2.90554 0.965183 -0.102902 -2.00697e-011 -5.35725e-014 -1.43125e-014 -10.2786 0.731801 -0.0259123 -2.00494e-011 -5.04913e-014 -1.90833e-014 -2.22167 -0.733487 0.20892 -2.03217e-016 0 -3.88251e-019 0.940028 -4.56521 -0.078758 -0.00191327 2.71742 -0.00754454 -0.501079 1.84803 0.0947651 2.03217e-016 0 3.88251e-019 -0.0507216 -2.31868 0.0217177 0.00815985 -1.35176 0.0697819 0.492742 3.67058 -0.130799 
53.0604 84.1272 28.8833 1.87385 -0.208264 -11.9473 1.09441 1.90261 -1.6458 1.2608 -0.229007 -0.430196 -2.00128 2.91678 -2.52177 3.93684 1.3081 -5.23064 -0 0 0 -0 0 0 -8.08127e-014 -1.53341e-013 1.37014e-014 19.6102 4.65223 0.415707 -3.71851 -1.60082 5.9007 0.0302342 3.87029 0.539511 9.15814e-010 7.86394e-011 2.8947e-010 1.58558e-009 1.33289e-010 4.88287e-010 9.15818e-010 7.86385e-011 2.89463e-010 7.73091 5.47488 0.417314 9.15815e-010 7.86378e-011 2.89471e-010 2.90554 0.965183 0.102902 9.15819e-010 7.86373e-011 2.89468e-010 10.2786 0.731801 0.0259123 9.1581e-010 7.86392e-011 2.89476e-010 2.22167 -0.733487 -0.20892 -8.08698e-014 -1.53333e-013 1.35309e-014 -22.9706 2.86688 -1.78941 4.1148 -1.84921 -6.44895 -0.000416671 0.454471 -0.0638646 1.05979e-009 1.37171e-009 6.15515e-010 1.8335e-009 2.36783e-009 1.06104e-009 1.05979e-009 1.3717e-009 6.15525e-010 -7.73091 5.47488 -0.417314 1.05979e-009 1.37171e-009 6.15518e-010 -2.90554 0.965183 -0.102902 1.05978e-009 1.3717e-009 6.1552e-010 -10.2786 0.731801 -0.0259123 1.0598e-009 1.37171e-009 6.15514e-010 -2.22167 -0.733487 0.20892 -2.03217e-016 0 -3.88251e-019 -1.23407 -10.9408 5.16956 -0.005379 8.84794 0.0776762 -1.15554 -0.392635 -8.14166 2.03217e-016 0 3.88251e-019 -1.52745 -1.02036 2.14528 0.00364242 3.58064 -0.0177777 0.721882 1.22165 5.31516 
52.61 84.1563 29.0673 4.22829 -0.389701 -24.5647 1.75154 3.91585 -3.41054 2.41857 -0.462523 -0.91517 -3.83411 5.97733 -5.21108 8.3589 2.64981 -10.7707 -0 0 0 -0 0 0 -1.68469e-013 -3.22441e-013 3.10787e-014 40.2714 9.58122 0.862133 -7.28954 -3.23421 12.1478 -0.0177284 7.92567 1.11323 1.98475e-009 1.6084e-010 6.02071e-010 3.43596e-009 2.7232e-010 1.01478e-009 1.98475e-009 1.60837e-010 6.02065e-010 7.73091 5.47488 0.417314 1.98475e-009 1.60837e-010 6.02073e-010 2.90554 0.965183 0.102902 1.98475e-009 1.60836e-010 6.0207e-010 10.2786 0.731801 0.0259123 1.98474e-009 1.60839e-010 6.0208e-010 2.22167 -0.733487 -0.20892 -1.68483e-013 -3.22423e-013 3.0939e-014 -47.0574 5.89944 -3.70742 8.01221 -3.72388 -13.2832 0.000249012 0.939414 -0.132025 2.28929e-009 2.90418e-009 1.3089e-009 3.96058e-009 5.01304e-009 2.25623e-009 2.28929e-009 2.90418e-009 1.30891e-009 -7.73091 5.47488 -0.417314 2.28929e-009 2.90419e-009 1.3089e-009 -2.90554 0.965183 -0.102902 2.28928e-009 2.90418e-009 1.3089e-009 -10.2786 0.731801 -0.0259123 2.2893e-009 2.90419e-009 1.3089e-009 -2.22167 -0.733487 0.20892 -2.03217e-016 0 -3.88251e-019 -2.2247 -17.4709 11.0411 -0.0294343 15.3175 0.172256 -2.54059 -2.64394 -16.8909 2.03217e-016 0 3.88251e-019 -3.20512 0.363008 4.37932 0.0151336 8.7435 -0.111133 1.46987 -1.34321 11.0838 
52.1401 84.1671 29.1805 6.26861 -0.51578 -35.8583 2.448 5.69472 -4.99277 3.44929 -0.677484 -1.34652 -5.22849 8.68216 -7.64361 12.5184 3.79368 -15.7232 -0 0 0 -0 0 0 -2.38261e-013 -4.60008e-013 4.09054e-014 58.6229 13.9537 1.28082 -10.1812 -4.59911 17.7542 -0.131813 11.6067 1.64856 2.78758e-009 2.36032e-010 8.6843e-010 4.82607e-009 4.0007e-010 1.46491e-009 2.78759e-009 2.36028e-010 8.68426e-010 7.73091 5.47488 0.417314 2.78759e-009 2.36027e-010 8.68433e-010 2.90554 0.965183 0.102902 2.78759e-009 2.36027e-010 8.6843e-010 10.2786 0.731801 0.0259123 2.78758e-009 2.3603e-010 8.68442e-010 2.22167 -0.733487 -0.20892 -2.38239e-013 -4.59983e-013 4.07916e-014 -68.3703 8.56689 -5.42218 11.1175 -5.26706 -19.422 0.00179016 1.36341 -0.191642 3.21948e-009 4.11523e-009 1.84659e-009 5.56974e-009 7.10369e-009 3.18317e-009 3.21948e-009 4.11521e-009 1.8466e-009 -7.73091 5.47488 -0.417314 3.21948e-009 4.11523e-009 1.84659e-009 -2.90554 0.965183 -0.102902 3.21947e-009 4.11521e-009 1.84659e-009 -10.2786 0.731801 -0.0259123 3.21949e-009 4.11523e-009 1.84658e-009 -2.22167 -0.733487 0.20892 -2.03217e-016 0 -3.88251e-019 -1.86568 -22.9196 16.7388 -0.0704603 21.1088 0.262974 -4.34116 -4.44106 -24.6929 2.03217e-016 0 3.88251e-019 -4.76909 1.56435 6.39382 0.040651 13.4453 -0.198186 2.56053 -3.51481 16.2343 
51.6234 84.1809 29.2986 7.67111 -0.5951 -43.8411 3.00616 6.90611 -6.09753 4.16971 -0.846214 -1.64375 -6.07473 10.5625 -9.35999 15.5296 4.56645 -19.1773 -0 0 0 -0 0 0 -2.63393e-013 -5.18741e-013 3.18552e-014 71.3478 16.9377 1.59811 -12.0517 -5.4849 21.7099 -0.25962 14.3556 2.06131 2.92519e-009 2.93702e-010 1.01918e-009 5.06549e-009 4.99614e-010 1.72412e-009 2.92519e-009 2.93697e-010 1.01918e-009 7.73091 5.47488 0.417314 2.92519e-009 2.93696e-010 1.01919e-009 2.90554 0.965183 0.102902 2.92519e-009 2.93696e-010 1.01918e-009 10.2786 0.731801 0.0259123 2.92518e-009 2.93699e-010 1.0192e-009 2.22167 -0.733487 -0.20892 -2.63354e-013 -5.18716e-013 3.17559e-014 -83.1411 10.355 -6.57569 13.0952 -6.24703 -23.7508 0.00327982 1.63503 -0.229851 3.4014e-009 4.52267e-009 1.99503e-009 5.88412e-009 7.80795e-009 3.43948e-009 3.4014e-009 4.52266e-009 1.99504e-009 -7.73091 5.47488 -0.417314 3.4014e-009 4.52268e-009 1.99503e-009 -2.90554 0.965183 -0.102902 3.40139e-009 4.52266e-009 1.99503e-009 -10.2786 0.731801 -0.0259123 3.4014e-009 4.52268e-009 1.99502e-009 -2.22167 -0.733487 0.20892 -2.03217e-016 0 -3.88251e-019 -0.84144 -26.3796 21.0346 -0.111632 25.2049 0.330501 -5.87803 -5.54687 -30.0364 2.03217e-016 0 3.88251e-019 -5.843 2.32452 7.85489 0.0696845 16.9947 -0.264241 3.5242 -4.88699 19.7886 
51.1064 84.2023 29.4827 8.23732 -0.67269 -47.1766 3.26317 7.3382 -6.51963 4.46118 -0.957829 -1.75305 -6.39167 11.3306 -10.0233 16.7097 4.9163 -20.5189 -0 0 0 -0 0 0 -2.18324e-013 -4.57585e-013 1.89738e-015 76.2626 17.9525 1.73393 -12.777 -5.83067 23.3193 -0.3382 15.852 2.29065 1.90453e-009 3.79298e-010 1.00418e-009 3.30188e-009 6.51116e-010 1.71257e-009 1.90454e-009 3.79294e-010 1.00418e-009 7.73091 5.47488 0.417314 1.90454e-009 3.79293e-010 1.00418e-009 2.90554 0.965183 0.102902 1.90454e-009 3.79294e-010 1.00418e-009 10.2786 0.731801 0.0259123 1.90453e-009 3.79296e-010 1.00419e-009 2.22167 -0.733487 -0.20892 -2.18302e-013 -4.57573e-013 1.79489e-015 -88.9344 10.9462 -6.9004 13.8612 -6.62867 -25.523 0.00378355 1.70084 -0.239112 2.30395e-009 3.69687e-009 1.53561e-009 3.9848e-009 6.38528e-009 2.64888e-009 2.30395e-009 3.69686e-009 1.53562e-009 -7.73091 5.47488 -0.417314 2.30396e-009 3.69688e-009 1.53562e-009 -2.90554 0.965183 -0.102902 2.30395e-009 3.69686e-009 1.53561e-009 -10.2786 0.731801 -0.0259123 2.30396e-009 3.69688e-009 1.53561e-009 -2.22167 -0.733487 0.20892 -2.03217e-016 0 -3.88251e-019 -0.187235 -27.5645 22.7499 -0.131644 26.9247 0.355702 -6.5173 -6.00168 -31.8893 2.03217e-016 0 3.88251e-019 -6.14964 2.48817 8.49493 0.0884787 18.9064 -0.297117 3.91506 -5.3471 21.0688 
